Coordinates
version=1
nRows=10
nColumns=46
inDegrees=yes

Units are S.I. units (second, meters, Newtons, ...)
Angles are in degrees.

endheader
time	pelvis_tilt	pelvis_list	pelvis_rotation	pelvis_tx	pelvis_ty	pelvis_tz	bb_angle	bb_tx	bb_ty	bb_tz	hip_flexion_r	hip_adduction_r	hip_rotation_r	knee_angle_r	knee_angle_r_beta	ankle_angle_r	subtalar_angle_r	mtp_angle_r	crank_angle_r	hip_flexion_l	hip_adduction_l	hip_rotation_l	knee_angle_l	knee_angle_l_beta	ankle_angle_l	subtalar_angle_l	mtp_angle_l	crank_angle_l	lumbar_extension	lumbar_bending	lumbar_rotation	arm_flex_r	arm_add_r	arm_rot_r	elbow_flex_r	pro_sup_r	wrist_flex_r	wrist_dev_r	arm_flex_l	arm_add_l	arm_rot_l	elbow_flex_l	pro_sup_l	wrist_flex_l	wrist_dev_l
      2.50000000	    -26.03652577	      3.69443240	      8.28776171	      0.39907373	      1.25019683	     -0.26556227	      0.00000000	      0.50000000	      0.00000000	      0.25000000	     25.88108859	    -13.53539186	    -15.92221647	     22.09239225	      0.38558498	    -31.97826662	     -0.89742838	      0.00000000	      0.00000000	     71.44422247	      0.42797028	     -2.11497299	     88.92101032	      1.55196440	     22.90720550	      6.73605663	      0.00000000	      0.00000000	    -49.66589381	     -8.27228689	     -0.71481291	     51.05087335	    -23.73118214	     24.87341990	     38.91161309	     43.77263226	      0.00000000	      0.00000000	     69.78206544	     -0.09179784	     59.07671460	     29.77975860	     45.56470721	      0.00000000	      0.00000000
      2.50500000	    -25.91056573	      3.53791895	      8.25059230	      0.39929746	      1.25048886	     -0.26633480	      0.00000000	      0.50000000	      0.00000000	      0.25000000	     26.24721938	    -13.52294917	    -15.57083939	     23.40732270	      0.40853485	    -31.68624620	     -1.53039735	      0.00000000	      0.00000000	     71.10703007	      0.52619361	     -2.01590611	     88.23477970	      1.53998742	     23.21259594	      6.36787400	      0.00000000	      0.00000000	    -49.95211459	     -8.23413080	     -0.61127261	     50.74463256	    -23.91546172	     24.05633056	     39.84827091	     43.79545681	      0.00000000	      0.00000000	     69.39782844	     -0.31300849	     57.67568787	     31.15001104	     45.52644926	      0.00000000	      0.00000000
      2.51000000	    -25.58227953	      3.36503919	      8.25851200	      0.39963233	      1.25106894	     -0.26706149	      0.00000000	      0.50000000	      0.00000000	      0.25000000	     26.35302857	    -13.47632949	    -15.31823502	     24.68640535	      0.43085905	    -31.38292043	     -2.05469192	      0.00000000	      0.00000000	     70.54277462	      0.65431387	     -1.84272335	     87.52411959	      1.52758406	     23.38121298	      6.06598890	      0.00000000	      0.00000000	    -50.33333219	     -8.13115948	     -0.82088685	     51.69826838	    -23.83122129	     26.07003662	     38.33641419	     44.02411505	      0.00000000	      0.00000000	     69.47486457	     -0.90595991	     58.27655800	     31.71273368	     45.58995481	      0.00000000	      0.00000000
      2.51500000	    -25.32706070	      3.14296448	      8.26822939	      0.39989948	      1.25141093	     -0.26779400	      0.00000000	      0.50000000	      0.00000000	      0.25000000	     26.59145522	    -13.40146671	    -15.09256224	     26.05303350	      0.45471121	    -31.05100356	     -2.75334795	      0.00000000	      0.00000000	     70.07253130	      0.73948369	     -1.63838891	     86.81678387	      1.51523872	     23.55722621	      5.82373223	      0.00000000	      0.00000000	    -50.69373813	     -8.00003011	     -0.68975291	     51.46482460	    -23.93794048	     25.28825547	     39.02238183	     44.01157258	      0.00000000	      0.00000000	     69.14345120	     -1.02810796	     57.08018853	     32.70286232	     45.52516436	      0.00000000	      0.00000000
      2.52000000	    -25.09712313	      2.93785953	      8.27708488	      0.40016802	      1.25167454	     -0.26847447	      0.00000000	      0.50000000	      0.00000000	      0.25000000	     26.90007590	    -13.35670995	    -14.85063137	     27.49152027	      0.47981755	    -30.76207526	     -3.38223756	      0.00000000	      0.00000000	     69.61842954	      0.79213275	     -1.46704826	     86.09880128	      1.50270756	     23.71783806	      5.60708686	      0.00000000	      0.00000000	    -51.05494032	     -7.90464124	     -0.63058637	     51.20887268	    -24.01742246	     24.49692183	     39.72169882	     43.98152812	      0.00000000	      0.00000000	     68.71661009	     -1.15341179	     55.62630188	     33.85956454	     45.44018855	      0.00000000	      0.00000000
      2.52500000	    -24.84674589	      2.73978231	      8.27269128	      0.40038096	      1.25194337	     -0.26918420	      0.00000000	      0.50000000	      0.00000000	      0.25000000	     27.23299057	    -13.35434272	    -14.68869090	     29.00368144	      0.50620974	    -30.32142919	     -3.74933619	      0.00000000	      0.00000000	     69.13230897	      0.84703553	     -1.31894342	     85.37076071	      1.49000086	     23.83630370	      5.11263564	      0.00000000	      0.00000000	    -51.30199463	     -7.80970593	     -0.69474095	     51.90122903	    -23.73228785	     25.32463858	     38.37383737	     43.90104182	      0.00000000	      0.00000000	     68.83123505	     -1.24139773	     55.89047992	     33.57299650	     45.37986827	      0.00000000	      0.00000000
      2.53000000	    -24.78350135	      2.49619313	      8.19635868	      0.40051294	      1.25176871	     -0.26967150	      0.00000000	      0.50000000	      0.00000000	      0.25000000	     27.82483735	    -13.24926297	    -14.29560119	     30.53009782	      0.53285073	    -30.05362334	     -4.28708788	      0.00000000	      0.00000000	     68.85832664	      0.79626901	     -1.18210374	     84.62627101	      1.47700706	     23.92641006	      4.97954277	      0.00000000	      0.00000000	    -51.42157939	     -7.71902572	     -0.52866262	     51.57562599	    -23.86023088	     24.61466834	     39.30163669	     43.92883818	      0.00000000	      0.00000000	     68.32346663	     -1.52417018	     54.59350426	     34.86623281	     45.36630360	      0.00000000	      0.00000000
      2.53500000	    -24.52212496	      2.26356552	      8.20411745	      0.40070785	      1.25195390	     -0.27025730	      0.00000000	      0.50000000	      0.00000000	      0.25000000	     28.15579336	    -13.17506435	    -14.03418256	     31.99843482	      0.55847804	    -29.79465512	     -4.69973438	      0.00000000	      0.00000000	     68.32535620	      0.81187792	     -1.00367161	     83.82131214	      1.46295788	     23.98372324	      4.53584953	      0.00000000	      0.00000000	    -51.66725332	     -7.57095471	     -0.67610220	     52.37559263	    -23.69946919	     26.27545618	     37.95745536	     44.00799702	      0.00000000	      0.00000000	     68.39638970	     -2.10496837	     55.32299517	     35.19694169	     45.48952817	      0.00000000	      0.00000000
      2.54000000	    -24.36349788	      2.06348405	      8.18296166	      0.40083428	      1.25190746	     -0.27088918	      0.00000000	      0.50000000	      0.00000000	      0.25000000	     28.65926135	    -13.14065381	    -13.70063593	     33.52195303	      0.58506845	    -29.64766502	     -5.17168984	      0.00000000	      0.00000000	     67.91705569	      0.81479362	     -0.85305340	     83.05280373	      1.44954488	     24.01999172	      4.47166495	      0.00000000	      0.00000000	    -51.92557292	     -7.47048669	     -0.57925921	     52.03189058	    -23.86116293	     25.55010026	     38.88467451	     44.03441381	      0.00000000	      0.00000000	     67.93539908	     -2.34546973	     54.00036995	     36.47146771	     45.46611090	      0.00000000	      0.00000000
      2.54500000	    -24.18344387	      1.81168848	      8.16967966	      0.40096834	      1.25184375	     -0.27130364	      0.00000000	      0.50000000	      0.00000000	      0.25000000	     29.13886325	    -13.02657008	    -13.34947343	     35.01086959	      0.61105495	    -29.50800891	     -5.48448397	      0.00000000	      0.00000000	     67.47583187	      0.76401118	     -0.65570006	     82.23942633	      1.43534876	     24.00291769	      4.27958025	      0.00000000	      0.00000000	    -52.10029975	     -7.34402189	     -0.63440562	     52.52927764	    -23.76191055	     26.54195306	     38.12597193	     44.10640093	      0.00000000	      0.00000000	     67.91133488	     -2.82562757	     54.28061573	     36.92515097	     45.55059151	      0.00000000	      0.00000000
